{
.appVersion = "983";
copyright = "Copyright 2016-2017 The PB Sans Condensed Project Authors";
customParameters = (
{
name = license;
value = "This Font Software is licensed under the SIL Open Font License, Version 1.1. This license is available with a FAQ at: http://scripts.sil.org/OFL";
},
{
name = licenseURL;
value = "http://scripts.sil.org/OFL";
}
);
date = "2017-07-01 23:46:11 +0000";
designer = "Panda Wong, Baran Wang";
familyName = "PB Sans Condensed";
fontMaster = (
{
alignmentZones = (
"{800, 0}",
"{-200, 0}"
);
ascender = 800;
capHeight = 800;
customParameters = (
{
name = typoAscender;
value = 800;
},
{
name = typoDescender;
value = -200;
},
{
name = typoLineGap;
value = 0;
}
);
descender = -200;
id = "574E95B2-2314-4574-B50A-AD7746FE2BE1";
weight = Bold;
width = Condensed;
xHeight = 800;
}
);
glyphs = (
{
glyphname = A;
lastChange = "2016-01-23 13:56:23 +0000";
layers = (
{
layerId = "574E95B2-2314-4574-B50A-AD7746FE2BE1";
paths = (
{
closed = 1;
nodes = (
"110 800 LINE",
"270 800 LINE",
"380 0 LINE",
"260 0 LINE",
"240 180 LINE",
"140 180 LINE",
"120 0 LINE",
"0 0 LINE"
);
},
{
closed = 1;
nodes = (
"230 280 LINE",
"190 630 LINE",
"150 280 LINE"
);
}
);
width = 380;
}
);
unicode = 0041;
},
{
glyphname = B;
lastChange = "2016-01-29 03:52:14 +0000";
layers = (
{
layerId = "574E95B2-2314-4574-B50A-AD7746FE2BE1";
paths = (
{
closed = 1;
nodes = (
"160 360 LINE",
"200 360 LINE SMOOTH",
"222 360 OFFCURVE",
"240 342 OFFCURVE",
"240 320 CURVE SMOOTH",
"240 160 LINE SMOOTH",
"240 138 OFFCURVE",
"222 120 OFFCURVE",
"200 120 CURVE SMOOTH",
"160 120 LINE"
);
},
{
closed = 1;
nodes = (
"160 680 LINE",
"200 680 LINE SMOOTH",
"222 680 OFFCURVE",
"240 662 OFFCURVE",
"240 640 CURVE SMOOTH",
"240 520 LINE SMOOTH",
"240 498 OFFCURVE",
"222 480 OFFCURVE",
"200 480 CURVE SMOOTH",
"160 480 LINE"
);
},
{
closed = 1;
nodes = (
"40 800 LINE",
"40 0 LINE",
"200 0 LINE SMOOTH",
"288 0 OFFCURVE",
"360 72 OFFCURVE",
"360 160 CURVE SMOOTH",
"360 320 LINE SMOOTH",
"360 358 OFFCURVE",
"347 393 OFFCURVE",
"325 420 CURVE",
"347 447 OFFCURVE",
"360 482 OFFCURVE",
"360 520 CURVE SMOOTH",
"360 640 LINE SMOOTH",
"360 728 OFFCURVE",
"288 800 OFFCURVE",
"200 800 CURVE SMOOTH"
);
}
);
width = 400;
}
);
unicode = 0042;
},
{
glyphname = C;
lastChange = "2016-01-29 03:52:32 +0000";
layers = (
{
layerId = "574E95B2-2314-4574-B50A-AD7746FE2BE1";
paths = (
{
closed = 1;
nodes = (
"112 810 OFFCURVE",
"40 738 OFFCURVE",
"40 650 CURVE SMOOTH",
"40 150 LINE SMOOTH",
"40 62 OFFCURVE",
"112 -10 OFFCURVE",
"200 -10 CURVE SMOOTH",
"288 -10 OFFCURVE",
"360 62 OFFCURVE",
"360 150 CURVE SMOOTH",
"360 340 LINE",
"240 340 LINE",
"240 150 LINE SMOOTH",
"240 128 OFFCURVE",
"222 110 OFFCURVE",
"200 110 CURVE SMOOTH",
"178 110 OFFCURVE",
"160 128 OFFCURVE",
"160 150 CURVE SMOOTH",
"160 650 LINE SMOOTH",
"160 672 OFFCURVE",
"178 690 OFFCURVE",
"200 690 CURVE SMOOTH",
"222 690 OFFCURVE",
"240 672 OFFCURVE",
"240 650 CURVE SMOOTH",
"240 460 LINE",
"360 460 LINE",
"360 650 LINE SMOOTH",
"360 738 OFFCURVE",
"288 810 OFFCURVE",
"200 810 CURVE SMOOTH"
);
}
);
width = 400;
}
);
unicode = 0043;
},
{
glyphname = D;
lastChange = "2016-01-29 03:52:47 +0000";
layers = (
{
layerId = "574E95B2-2314-4574-B50A-AD7746FE2BE1";
paths = (
{
closed = 1;
nodes = (
"160 680 LINE",
"200 680 LINE SMOOTH",
"222 680 OFFCURVE",
"240 662 OFFCURVE",
"240 640 CURVE SMOOTH",
"240 160 LINE SMOOTH",
"240 138 OFFCURVE",
"222 120 OFFCURVE",
"200 120 CURVE SMOOTH",
"160 120 LINE"
);
},
{
closed = 1;
nodes = (
"40 800 LINE",
"40 0 LINE",
"200 0 LINE SMOOTH",
"288 0 OFFCURVE",
"360 72 OFFCURVE",
"360 160 CURVE SMOOTH",
"360 640 LINE SMOOTH",
"360 728 OFFCURVE",
"288 800 OFFCURVE",
"200 800 CURVE SMOOTH"
);
}
);
width = 400;
}
);
unicode = 0044;
},
{
glyphname = E;
lastChange = "2016-01-23 13:58:20 +0000";
layers = (
{
layerId = "574E95B2-2314-4574-B50A-AD7746FE2BE1";
paths = (
{
closed = 1;
nodes = (
"320 800 LINE",
"40 800 LINE",
"40 0 LINE",
"320 0 LINE",
"320 120 LINE",
"160 120 LINE",
"160 340 LINE",
"320 340 LINE",
"320 460 LINE",
"160 460 LINE",
"160 680 LINE",
"320 680 LINE"
);
}
);
width = 340;
}
);
unicode = 0045;
},
{
glyphname = F;
lastChange = "2016-01-23 13:58:44 +0000";
layers = (
{
layerId = "574E95B2-2314-4574-B50A-AD7746FE2BE1";
paths = (
{
closed = 1;
nodes = (
"320 800 LINE",
"40 800 LINE",
"40 0 LINE",
"160 0 LINE",
"160 320 LINE",
"280 320 LINE",
"280 440 LINE",
"160 440 LINE",
"160 680 LINE",
"320 680 LINE"
);
}
);
width = 340;
}
);
unicode = 0046;
},
{
glyphname = G;
lastChange = "2016-01-29 03:53:53 +0000";
layers = (
{
layerId = "574E95B2-2314-4574-B50A-AD7746FE2BE1";
paths = (
{
closed = 1;
nodes = (
"112 810 OFFCURVE",
"40 738 OFFCURVE",
"40 650 CURVE SMOOTH",
"40 150 LINE SMOOTH",
"40 62 OFFCURVE",
"112 -10 OFFCURVE",
"200 -10 CURVE SMOOTH",
"232 -10 OFFCURVE",
"262 0 OFFCURVE",
"287 16 CURVE",
"300 -10 LINE",
"360 -10 LINE",
"360 150 LINE",
"360 320 LINE",
"360 440 LINE",
"200 440 LINE",
"200 320 LINE",
"240 320 LINE",
"240 150 LINE SMOOTH",
"240 128 OFFCURVE",
"222 110 OFFCURVE",
"200 110 CURVE SMOOTH",
"178 110 OFFCURVE",
"160 128 OFFCURVE",
"160 150 CURVE SMOOTH",
"160 650 LINE SMOOTH",
"160 672 OFFCURVE",
"178 690 OFFCURVE",
"200 690 CURVE SMOOTH",
"222 690 OFFCURVE",
"240 672 OFFCURVE",
"240 650 CURVE SMOOTH",
"240 560 LINE",
"360 560 LINE",
"360 650 LINE SMOOTH",
"360 738 OFFCURVE",
"288 810 OFFCURVE",
"200 810 CURVE SMOOTH"
);
}
);
width = 400;
}
);
unicode = 0047;
},
{
glyphname = H;
lastChange = "2016-01-29 03:54:13 +0000";
layers = (
{
layerId = "574E95B2-2314-4574-B50A-AD7746FE2BE1";
paths = (
{
closed = 1;
nodes = (
"240 460 LINE",
"160 460 LINE",
"160 800 LINE",
"40 800 LINE",
"40 0 LINE",
"160 0 LINE",
"160 340 LINE",
"240 340 LINE",
"240 0 LINE",
"360 0 LINE",
"360 800 LINE",
"240 800 LINE"
);
}
);
width = 400;
}
);
unicode = 0048;
},
{
glyphname = I;
lastChange = "2016-01-29 03:54:35 +0000";
layers = (
{
layerId = "574E95B2-2314-4574-B50A-AD7746FE2BE1";
paths = (
{
closed = 1;
nodes = (
"93 800 OFFCURVE",
"133 800 OFFCURVE",
"160 800 CURVE",
"160 444 OFFCURVE",
"160 178 OFFCURVE",
"160 0 CURVE",
"107 0 OFFCURVE",
"67 0 OFFCURVE",
"40 0 CURVE",
"40 356 OFFCURVE",
"40 622 OFFCURVE",
"40 800 CURVE"
);
}
);
width = 200;
}
);
unicode = 0049;
},
{
glyphname = J;
lastChange = "2016-01-29 03:54:51 +0000";
layers = (
{
layerId = "574E95B2-2314-4574-B50A-AD7746FE2BE1";
paths = (
{
closed = 1;
nodes = (
"80 120 LINE SMOOTH",
"80 98 OFFCURVE",
"62 80 OFFCURVE",
"40 80 CURVE SMOOTH",
"0 80 LINE",
"0 0 LINE",
"80 0 LINE SMOOTH",
"146 0 OFFCURVE",
"200 54 OFFCURVE",
"200 120 CURVE SMOOTH",
"200 800 LINE",
"80 800 LINE"
);
}
);
width = 240;
}
);
unicode = 004A;
},
{
glyphname = K;
lastChange = "2016-01-29 03:56:02 +0000";
layers = (
{
layerId = "574E95B2-2314-4574-B50A-AD7746FE2BE1";
paths = (
{
closed = 1;
nodes = (
"220 800 LINE",
"140 507 LINE",
"140 800 LINE",
"20 800 LINE",
"20 0 LINE",
"140 0 LINE",
"140 320 LINE",
"220 0 LINE",
"340 0 LINE",
"236 417 LINE",
"340 800 LINE"
);
},
{
closed = 1;
nodes = (
"340 800 LINE"
);
}
);
width = 360;
}
);
unicode = 004B;
},
{
glyphname = L;
lastChange = "2016-01-29 03:56:57 +0000";
layers = (
{
layerId = "574E95B2-2314-4574-B50A-AD7746FE2BE1";
paths = (
{
closed = 1;
nodes = (
"320 0 LINE",
"40 0 LINE",
"40 800 LINE",
"160 800 LINE",
"160 120 LINE",
"320 120 LINE"
);
}
);
width = 340;
}
);
unicode = 004C;
},
{
glyphname = M;
lastChange = "2016-01-29 03:58:20 +0000";
layers = (
{
layerId = "574E95B2-2314-4574-B50A-AD7746FE2BE1";
paths = (
{
closed = 1;
nodes = (
"400 800 LINE",
"280 396 LINE",
"160 800 LINE",
"40 800 LINE",
"40 0 LINE",
"160 0 LINE",
"160 463 LINE",
"160 463 LINE",
"250 160 LINE",
"310 160 LINE",
"400 463 LINE",
"400 463 LINE",
"400 0 LINE",
"520 0 LINE",
"520 800 LINE"
);
}
);
width = 560;
}
);
unicode = 004D;
},
{
glyphname = N;
lastChange = "2016-01-29 03:58:37 +0000";
layers = (
{
layerId = "574E95B2-2314-4574-B50A-AD7746FE2BE1";
paths = (
{
closed = 1;
nodes = (
"280 800 LINE",
"280 369 LINE",
"140 800 LINE",
"40 800 LINE",
"40 0 LINE",
"160 0 LINE",
"160 431 LINE",
"300 0 LINE",
"400 0 LINE",
"400 800 LINE"
);
}
);
width = 440;
}
);
unicode = 004E;
},
{
glyphname = O;
lastChange = "2016-01-29 03:58:52 +0000";
layers = (
{
layerId = "574E95B2-2314-4574-B50A-AD7746FE2BE1";
paths = (
{
closed = 1;
nodes = (
"222 690 OFFCURVE",
"240 672 OFFCURVE",
"240 650 CURVE SMOOTH",
"240 150 LINE SMOOTH",
"240 128 OFFCURVE",
"222 110 OFFCURVE",
"200 110 CURVE SMOOTH",
"178 110 OFFCURVE",
"160 128 OFFCURVE",
"160 150 CURVE SMOOTH",
"160 650 LINE SMOOTH",
"160 672 OFFCURVE",
"178 690 OFFCURVE",
"200 690 CURVE SMOOTH"
);
},
{
closed = 1;
nodes = (
"112 810 OFFCURVE",
"40 738 OFFCURVE",
"40 650 CURVE SMOOTH",
"40 150 LINE SMOOTH",
"40 62 OFFCURVE",
"112 -10 OFFCURVE",
"200 -10 CURVE SMOOTH",
"288 -10 OFFCURVE",
"360 62 OFFCURVE",
"360 150 CURVE SMOOTH",
"360 650 LINE SMOOTH",
"360 738 OFFCURVE",
"288 810 OFFCURVE",
"200 810 CURVE SMOOTH"
);
}
);
width = 400;
}
);
unicode = 004F;
},
{
glyphname = P;
lastChange = "2016-01-29 03:59:09 +0000";
layers = (
{
layerId = "574E95B2-2314-4574-B50A-AD7746FE2BE1";
paths = (
{
closed = 1;
nodes = (
"160 800 LINE",
"40 800 LINE",
"40 0 LINE",
"160 0 LINE",
"160 320 LINE",
"195 320 LINE SMOOTH",
"286 320 OFFCURVE",
"360 394 OFFCURVE",
"360 485 CURVE SMOOTH",
"360 640 LINE SMOOTH",
"360 728 OFFCURVE",
"288 800 OFFCURVE",
"200 800 CURVE SMOOTH"
);
},
{
closed = 1;
nodes = (
"240 460 OFFCURVE",
"220 440 OFFCURVE",
"195 440 CURVE SMOOTH",
"160 440 LINE",
"160 680 LINE",
"200 680 LINE SMOOTH",
"222 680 OFFCURVE",
"240 662 OFFCURVE",
"240 640 CURVE SMOOTH",
"240 485 LINE SMOOTH"
);
}
);
width = 400;
}
);
unicode = 0050;
},
{
glyphname = Q;
lastChange = "2016-01-29 03:59:42 +0000";
layers = (
{
layerId = "574E95B2-2314-4574-B50A-AD7746FE2BE1";
paths = (
{
closed = 1;
nodes = (
"178 110 OFFCURVE",
"160 128 OFFCURVE",
"160 150 CURVE SMOOTH",
"160 650 LINE SMOOTH",
"160 672 OFFCURVE",
"178 690 OFFCURVE",
"200 690 CURVE SMOOTH",
"222 690 OFFCURVE",
"240 672 OFFCURVE",
"240 650 CURVE SMOOTH",
"240 230 LINE",
"240 150 LINE SMOOTH",
"240 128 OFFCURVE",
"222 110 OFFCURVE",
"200 110 CURVE SMOOTH"
);
},
{
closed = 1;
nodes = (
"112 810 OFFCURVE",
"40 738 OFFCURVE",
"40 650 CURVE SMOOTH",
"40 150 LINE SMOOTH",
"40 62 OFFCURVE",
"112 -10 OFFCURVE",
"200 -10 CURVE SMOOTH",
"249 -10 OFFCURVE",
"293 13 OFFCURVE",
"323 48 CURVE",
"400 -10 LINE",
"400 110 LINE",
"360 140 LINE",
"360 144 OFFCURVE",
"360 147 OFFCURVE",
"360 150 CURVE SMOOTH",
"360 650 LINE SMOOTH",
"360 738 OFFCURVE",
"288 810 OFFCURVE",
"200 810 CURVE SMOOTH"
);
}
);
width = 400;
}
);
unicode = 0051;
},
{
glyphname = R;
lastChange = "2016-01-29 04:00:13 +0000";
layers = (
{
layerId = "574E95B2-2314-4574-B50A-AD7746FE2BE1";
paths = (
{
closed = 1;
nodes = (
"160 680 LINE",
"200 680 LINE SMOOTH",
"222 680 OFFCURVE",
"240 662 OFFCURVE",
"240 640 CURVE SMOOTH",
"240 500 LINE SMOOTH",
"240 478 OFFCURVE",
"222 460 OFFCURVE",
"200 460 CURVE SMOOTH",
"160 460 LINE"
);
},
{
closed = 1;
nodes = (
"40 800 LINE",
"40 0 LINE",
"160 0 LINE",
"160 340 LINE",
"191 340 LINE",
"280 0 LINE",
"400 0 LINE",
"302 377 LINE",
"337 406 OFFCURVE",
"360 450 OFFCURVE",
"360 500 CURVE SMOOTH",
"360 640 LINE SMOOTH",
"360 728 OFFCURVE",
"308 800 OFFCURVE",
"220 800 CURVE SMOOTH"
);
}
);
width = 410;
}
);
unicode = 0052;
},
{
glyphname = S;
lastChange = "2016-01-29 04:00:37 +0000";
layers = (
{
layerId = "574E95B2-2314-4574-B50A-AD7746FE2BE1";
paths = (
{
closed = 1;
nodes = (
"112 810 OFFCURVE",
"40 738 OFFCURVE",
"40 650 CURVE SMOOTH",
"40 580 LINE SMOOTH",
"40 467 OFFCURVE",
"148 366 OFFCURVE",
"160 355 CURVE SMOOTH",
"186 332 OFFCURVE",
"240 268 OFFCURVE",
"240 220 CURVE SMOOTH",
"240 150 LINE SMOOTH",
"240 128 OFFCURVE",
"222 110 OFFCURVE",
"200 110 CURVE SMOOTH",
"178 110 OFFCURVE",
"160 128 OFFCURVE",
"160 150 CURVE SMOOTH",
"160 270 LINE",
"40 270 LINE",
"40 150 LINE SMOOTH",
"40 62 OFFCURVE",
"112 -10 OFFCURVE",
"200 -10 CURVE SMOOTH",
"288 -10 OFFCURVE",
"360 62 OFFCURVE",
"360 150 CURVE SMOOTH",
"360 220 LINE SMOOTH",
"360 333 OFFCURVE",
"252 434 OFFCURVE",
"240 445 CURVE SMOOTH",
"214 468 OFFCURVE",
"160 532 OFFCURVE",
"160 580 CURVE SMOOTH",
"160 650 LINE SMOOTH",
"160 672 OFFCURVE",
"178 690 OFFCURVE",
"200 690 CURVE SMOOTH",
"222 690 OFFCURVE",
"240 672 OFFCURVE",
"240 650 CURVE SMOOTH",
"240 530 LINE",
"360 530 LINE",
"360 650 LINE SMOOTH",
"360 738 OFFCURVE",
"288 810 OFFCURVE",
"200 810 CURVE SMOOTH"
);
}
);
width = 400;
}
);
unicode = 0053;
},
{
glyphname = T;
lastChange = "2016-01-29 03:28:27 +0000";
layers = (
{
layerId = "574E95B2-2314-4574-B50A-AD7746FE2BE1";
paths = (
{
closed = 1;
nodes = (
"0 800 LINE",
"0 680 LINE",
"100 680 LINE",
"100 0 LINE",
"220 0 LINE",
"220 680 LINE",
"320 680 LINE",
"320 800 LINE"
);
}
);
width = 320;
}
);
unicode = 0054;
},
{
glyphname = U;
lastChange = "2016-01-29 04:01:08 +0000";
layers = (
{
layerId = "574E95B2-2314-4574-B50A-AD7746FE2BE1";
paths = (
{
closed = 1;
nodes = (
"240 800 LINE",
"240 150 LINE SMOOTH",
"240 128 OFFCURVE",
"222 110 OFFCURVE",
"200 110 CURVE SMOOTH",
"178 110 OFFCURVE",
"160 128 OFFCURVE",
"160 150 CURVE SMOOTH",
"160 800 LINE",
"40 800 LINE",
"40 150 LINE SMOOTH",
"40 62 OFFCURVE",
"112 -10 OFFCURVE",
"200 -10 CURVE SMOOTH",
"288 -10 OFFCURVE",
"360 62 OFFCURVE",
"360 150 CURVE SMOOTH",
"360 800 LINE"
);
}
);
width = 400;
}
);
unicode = 0055;
},
{
glyphname = V;
lastChange = "2016-01-29 04:01:20 +0000";
layers = (
{
layerId = "574E95B2-2314-4574-B50A-AD7746FE2BE1";
paths = (
{
closed = 1;
nodes = (
"250 800 LINE",
"190 320 LINE",
"130 800 LINE",
"10 800 LINE",
"130 0 LINE",
"250 0 LINE",
"370 800 LINE"
);
},
{
closed = 1;
nodes = (
"370 800 LINE"
);
}
);
width = 380;
}
);
unicode = 0056;
},
{
glyphname = W;
lastChange = "2016-01-29 04:01:43 +0000";
layers = (
{
layerId = "574E95B2-2314-4574-B50A-AD7746FE2BE1";
paths = (
{
closed = 1;
nodes = (
"450 800 LINE",
"409 337 LINE",
"340 800 LINE",
"290 800 LINE",
"240 800 LINE",
"171 337 LINE",
"130 800 LINE",
"10 800 LINE",
"100 0 LINE",
"220 0 LINE",
"290 509 LINE",
"360 0 LINE",
"480 0 LINE",
"570 800 LINE"
);
},
{
closed = 1;
nodes = (
"570 800 LINE"
);
}
);
width = 580;
}
);
unicode = 0057;
},
{
glyphname = X;
lastChange = "2016-01-29 03:29:44 +0000";
layers = (
{
layerId = "574E95B2-2314-4574-B50A-AD7746FE2BE1";
paths = (
{
closed = 1;
nodes = (
"240 800 LINE",
"180 600 LINE",
"120 800 LINE",
"0 800 LINE",
"120 400 LINE",
"0 0 LINE",
"120 0 LINE",
"180 200 LINE",
"240 0 LINE",
"360 0 LINE",
"240 400 LINE",
"360 800 LINE"
);
},
{
closed = 1;
nodes = (
"360 800 LINE"
);
}
);
width = 360;
}
);
unicode = 0058;
},
{
glyphname = Y;
lastChange = "2016-01-29 04:02:09 +0000";
layers = (
{
layerId = "574E95B2-2314-4574-B50A-AD7746FE2BE1";
paths = (
{
closed = 1;
nodes = (
"250 800 LINE",
"190 512 LINE",
"130 800 LINE",
"10 800 LINE",
"130 320 LINE",
"130 0 LINE",
"250 0 LINE",
"250 320 LINE",
"370 800 LINE"
);
},
{
closed = 1;
nodes = (
"370 800 LINE"
);
}
);
width = 380;
}
);
unicode = 0059;
},
{
glyphname = Z;
lastChange = "2016-01-29 04:02:23 +0000";
layers = (
{
layerId = "574E95B2-2314-4574-B50A-AD7746FE2BE1";
paths = (
{
closed = 1;
nodes = (
"40 800 LINE",
"40 680 LINE",
"240 680 LINE",
"40 120 LINE",
"40 0 LINE",
"360 0 LINE",
"360 120 LINE",
"160 120 LINE",
"360 680 LINE",
"360 800 LINE"
);
}
);
width = 400;
}
);
unicode = 005A;
},
{
glyphname = zero;
lastChange = "2016-01-29 03:35:19 +0000";
layers = (
{
layerId = "574E95B2-2314-4574-B50A-AD7746FE2BE1";
paths = (
{
closed = 1;
nodes = (
"183 110 OFFCURVE",
"170 123 OFFCURVE",
"170 140 CURVE SMOOTH",
"170 660 LINE SMOOTH",
"170 677 OFFCURVE",
"183 690 OFFCURVE",
"200 690 CURVE SMOOTH",
"217 690 OFFCURVE",
"230 677 OFFCURVE",
"230 660 CURVE SMOOTH",
"230 140 LINE SMOOTH",
"230 123 OFFCURVE",
"217 110 OFFCURVE",
"200 110 CURVE SMOOTH"
);
},
{
closed = 1;
nodes = (
"200 810 LINE SMOOTH",
"117 810 OFFCURVE",
"50 743 OFFCURVE",
"50 660 CURVE SMOOTH",
"50 140 LINE SMOOTH",
"50 57 OFFCURVE",
"117 -10 OFFCURVE",
"200 -10 CURVE",
"200 -10 LINE",
"283 -10 OFFCURVE",
"350 57 OFFCURVE",
"350 140 CURVE SMOOTH",
"350 660 LINE SMOOTH",
"350 743 OFFCURVE",
"283 810 OFFCURVE",
"200 810 CURVE SMOOTH"
);
}
);
width = 400;
}
);
unicode = 0030;
},
{
glyphname = one;
lastChange = "2016-01-29 06:18:50 +0000";
layers = (
{
layerId = "574E95B2-2314-4574-B50A-AD7746FE2BE1";
paths = (
{
closed = 1;
nodes = (
"80 800 LINE",
"80 680 LINE",
"160 680 LINE",
"160 0 LINE",
"280 0 LINE",
"280 800 LINE"
);
}
);
width = 400;
}
);
unicode = 0031;
},
{
glyphname = two;
lastChange = "2016-01-29 03:37:01 +0000";
layers = (
{
layerId = "574E95B2-2314-4574-B50A-AD7746FE2BE1";
paths = (
{
closed = 1;
nodes = (
"112 800 OFFCURVE",
"40 728 OFFCURVE",
"40 640 CURVE SMOOTH",
"40 560 LINE",
"160 560 LINE",
"160 638 LINE SMOOTH",
"160 659 OFFCURVE",
"175 678 OFFCURVE",
"196 680 CURVE SMOOTH",
"197 680 OFFCURVE",
"199 680 OFFCURVE",
"200 680 CURVE SMOOTH",
"222 680 OFFCURVE",
"240 662 OFFCURVE",
"240 640 CURVE SMOOTH",
"240 587 OFFCURVE",
"229 535 OFFCURVE",
"207 487 CURVE SMOOTH",
"40 120 LINE",
"40 0 LINE",
"360 0 LINE",
"360 120 LINE",
"160 120 LINE",
"327 487 LINE SMOOTH",
"349 535 OFFCURVE",
"360 587 OFFCURVE",
"360 640 CURVE SMOOTH",
"360 728 OFFCURVE",
"288 800 OFFCURVE",
"200 800 CURVE SMOOTH"
);
}
);
width = 400;
}
);
unicode = 0032;
},
{
glyphname = three;
lastChange = "2016-01-29 03:45:06 +0000";
layers = (
{
layerId = "574E95B2-2314-4574-B50A-AD7746FE2BE1";
paths = (
{
closed = 1;
nodes = (
"112 810 OFFCURVE",
"40 738 OFFCURVE",
"40 650 CURVE SMOOTH",
"40 560 LINE",
"160 560 LINE",
"160 640 LINE SMOOTH",
"160 662 OFFCURVE",
"178 680 OFFCURVE",
"200 680 CURVE SMOOTH",
"222 680 OFFCURVE",
"240 662 OFFCURVE",
"240 640 CURVE SMOOTH",
"240 500 LINE SMOOTH",
"240 478 OFFCURVE",
"222 460 OFFCURVE",
"200 460 CURVE SMOOTH",
"180 460 LINE",
"180 360 LINE",
"200 360 LINE SMOOTH",
"222 360 OFFCURVE",
"240 342 OFFCURVE",
"240 320 CURVE SMOOTH",
"240 160 LINE SMOOTH",
"240 138 OFFCURVE",
"222 120 OFFCURVE",
"200 120 CURVE SMOOTH",
"178 120 OFFCURVE",
"160 138 OFFCURVE",
"160 160 CURVE SMOOTH",
"160 240 LINE",
"40 240 LINE",
"40 150 LINE SMOOTH",
"40 62 OFFCURVE",
"112 -10 OFFCURVE",
"200 -10 CURVE SMOOTH",
"288 -10 OFFCURVE",
"360 62 OFFCURVE",
"360 150 CURVE SMOOTH",
"360 310 LINE SMOOTH",
"360 348 OFFCURVE",
"347 383 OFFCURVE",
"325 410 CURVE",
"347 437 OFFCURVE",
"360 472 OFFCURVE",
"360 510 CURVE SMOOTH",
"360 650 LINE SMOOTH",
"360 738 OFFCURVE",
"288 810 OFFCURVE",
"200 810 CURVE SMOOTH"
);
}
);
width = 400;
}
);
unicode = 0033;
},
{
glyphname = four;
lastChange = "2016-01-29 03:46:02 +0000";
layers = (
{
layerId = "574E95B2-2314-4574-B50A-AD7746FE2BE1";
paths = (
{
closed = 1;
nodes = (
"210 520 LINE",
"210 240 LINE",
"130 240 LINE"
);
},
{
closed = 1;
nodes = (
"210 800 LINE",
"10 240 LINE",
"10 120 LINE",
"210 120 LINE",
"210 0 LINE",
"330 0 LINE",
"330 120 LINE",
"390 120 LINE",
"390 240 LINE",
"330 240 LINE",
"330 800 LINE"
);
}
);
width = 400;
}
);
unicode = 0034;
},
{
glyphname = five;
lastChange = "2016-01-29 03:46:25 +0000";
layers = (
{
layerId = "574E95B2-2314-4574-B50A-AD7746FE2BE1";
paths = (
{
closed = 1;
nodes = (
"40 800 LINE",
"40 400 LINE",
"160 400 LINE",
"160 422 OFFCURVE",
"178 440 OFFCURVE",
"200 440 CURVE SMOOTH",
"222 440 OFFCURVE",
"240 422 OFFCURVE",
"240 400 CURVE SMOOTH",
"240 160 LINE SMOOTH",
"240 138 OFFCURVE",
"222 120 OFFCURVE",
"200 120 CURVE SMOOTH",
"178 120 OFFCURVE",
"160 138 OFFCURVE",
"160 160 CURVE SMOOTH",
"160 240 LINE",
"40 240 LINE",
"40 160 LINE SMOOTH",
"40 72 OFFCURVE",
"112 0 OFFCURVE",
"200 0 CURVE SMOOTH",
"288 0 OFFCURVE",
"360 72 OFFCURVE",
"360 160 CURVE SMOOTH",
"360 400 LINE SMOOTH",
"360 488 OFFCURVE",
"288 560 OFFCURVE",
"200 560 CURVE SMOOTH",
"186 560 OFFCURVE",
"173 558 OFFCURVE",
"160 555 CURVE",
"160 680 LINE",
"340 680 LINE",
"340 800 LINE"
);
}
);
width = 400;
}
);
unicode = 0035;
},
{
glyphname = six;
lastChange = "2016-01-29 03:46:53 +0000";
layers = (
{
layerId = "574E95B2-2314-4574-B50A-AD7746FE2BE1";
paths = (
{
closed = 1;
nodes = (
"178 110 OFFCURVE",
"160 128 OFFCURVE",
"160 150 CURVE SMOOTH",
"160 350 LINE SMOOTH",
"160 372 OFFCURVE",
"178 390 OFFCURVE",
"200 390 CURVE SMOOTH",
"222 390 OFFCURVE",
"240 372 OFFCURVE",
"240 350 CURVE SMOOTH",
"240 150 LINE SMOOTH",
"240 128 OFFCURVE",
"222 110 OFFCURVE",
"200 110 CURVE SMOOTH"
);
},
{
closed = 1;
nodes = (
"112 810 OFFCURVE",
"40 738 OFFCURVE",
"40 650 CURVE SMOOTH",
"40 150 LINE SMOOTH",
"40 62 OFFCURVE",
"112 -10 OFFCURVE",
"200 -10 CURVE SMOOTH",
"288 -10 OFFCURVE",
"360 62 OFFCURVE",
"360 150 CURVE SMOOTH",
"360 350 LINE SMOOTH",
"360 438 OFFCURVE",
"288 510 OFFCURVE",
"200 510 CURVE SMOOTH",
"186 510 OFFCURVE",
"173 508 OFFCURVE",
"160 505 CURVE",
"160 650 LINE SMOOTH",
"160 672 OFFCURVE",
"178 690 OFFCURVE",
"200 690 CURVE SMOOTH",
"222 690 OFFCURVE",
"240 672 OFFCURVE",
"240 650 CURVE SMOOTH",
"240 570 LINE",
"360 570 LINE",
"360 650 LINE SMOOTH",
"360 738 OFFCURVE",
"288 810 OFFCURVE",
"200 810 CURVE SMOOTH"
);
}
);
width = 400;
}
);
unicode = 0036;
},
{
glyphname = seven;
lastChange = "2016-01-29 03:47:16 +0000";
layers = (
{
layerId = "574E95B2-2314-4574-B50A-AD7746FE2BE1";
paths = (
{
closed = 1;
nodes = (
"40 800 LINE",
"40 640 LINE",
"140 640 LINE",
"140 680 LINE",
"240 680 LINE",
"80 0 LINE",
"200 0 LINE",
"360 680 LINE",
"360 800 LINE"
);
}
);
width = 400;
}
);
unicode = 0037;
},
{
glyphname = eight;
lastChange = "2016-01-29 03:47:40 +0000";
layers = (
{
layerId = "574E95B2-2314-4574-B50A-AD7746FE2BE1";
paths = (
{
closed = 1;
nodes = (
"178 120 OFFCURVE",
"160 138 OFFCURVE",
"160 160 CURVE SMOOTH",
"160 320 LINE SMOOTH",
"160 342 OFFCURVE",
"178 360 OFFCURVE",
"200 360 CURVE SMOOTH",
"222 360 OFFCURVE",
"240 342 OFFCURVE",
"240 320 CURVE SMOOTH",
"240 160 LINE SMOOTH",
"240 138 OFFCURVE",
"222 120 OFFCURVE",
"200 120 CURVE SMOOTH"
);
},
{
closed = 1;
nodes = (
"178 460 OFFCURVE",
"160 478 OFFCURVE",
"160 500 CURVE SMOOTH",
"160 640 LINE SMOOTH",
"160 662 OFFCURVE",
"178 680 OFFCURVE",
"200 680 CURVE SMOOTH",
"222 680 OFFCURVE",
"240 662 OFFCURVE",
"240 640 CURVE SMOOTH",
"240 500 LINE SMOOTH",
"240 478 OFFCURVE",
"222 460 OFFCURVE",
"200 460 CURVE SMOOTH"
);
},
{
closed = 1;
nodes = (
"112 810 OFFCURVE",
"40 738 OFFCURVE",
"40 650 CURVE SMOOTH",
"40 510 LINE SMOOTH",
"40 472 OFFCURVE",
"53 437 OFFCURVE",
"75 410 CURVE",
"53 383 OFFCURVE",
"40 348 OFFCURVE",
"40 310 CURVE SMOOTH",
"40 150 LINE SMOOTH",
"40 62 OFFCURVE",
"112 -10 OFFCURVE",
"200 -10 CURVE SMOOTH",
"288 -10 OFFCURVE",
"360 62 OFFCURVE",
"360 150 CURVE SMOOTH",
"360 310 LINE SMOOTH",
"360 348 OFFCURVE",
"347 383 OFFCURVE",
"325 410 CURVE",
"347 437 OFFCURVE",
"360 472 OFFCURVE",
"360 510 CURVE SMOOTH",
"360 650 LINE SMOOTH",
"360 738 OFFCURVE",
"288 810 OFFCURVE",
"200 810 CURVE SMOOTH"
);
}
);
width = 400;
}
);
unicode = 0038;
},
{
glyphname = nine;
lastChange = "2016-01-29 03:47:58 +0000";
layers = (
{
layerId = "574E95B2-2314-4574-B50A-AD7746FE2BE1";
paths = (
{
closed = 1;
nodes = (
"178 420 OFFCURVE",
"160 438 OFFCURVE",
"160 460 CURVE SMOOTH",
"160 660 LINE SMOOTH",
"160 682 OFFCURVE",
"178 700 OFFCURVE",
"200 700 CURVE SMOOTH",
"222 700 OFFCURVE",
"240 682 OFFCURVE",
"240 660 CURVE SMOOTH",
"240 460 LINE SMOOTH",
"240 438 OFFCURVE",
"222 420 OFFCURVE",
"200 420 CURVE SMOOTH"
);
},
{
closed = 1;
nodes = (
"112 820 OFFCURVE",
"40 748 OFFCURVE",
"40 660 CURVE SMOOTH",
"40 460 LINE SMOOTH",
"40 372 OFFCURVE",
"112 300 OFFCURVE",
"200 300 CURVE SMOOTH",
"214 300 OFFCURVE",
"227 302 OFFCURVE",
"240 305 CURVE",
"240 160 LINE SMOOTH",
"240 138 OFFCURVE",
"222 120 OFFCURVE",
"200 120 CURVE SMOOTH",
"178 120 OFFCURVE",
"160 138 OFFCURVE",
"160 160 CURVE SMOOTH",
"160 240 LINE",
"40 240 LINE",
"40 160 LINE SMOOTH",
"40 72 OFFCURVE",
"112 0 OFFCURVE",
"200 0 CURVE SMOOTH",
"288 0 OFFCURVE",
"360 72 OFFCURVE",
"360 160 CURVE SMOOTH",
"360 660 LINE SMOOTH",
"360 748 OFFCURVE",
"288 820 OFFCURVE",
"200 820 CURVE SMOOTH"
);
}
);
width = 400;
}
);
unicode = 0039;
},
{
glyphname = colon;
lastChange = "2016-01-29 04:28:38 +0000";
layers = (
{
layerId = "574E95B2-2314-4574-B50A-AD7746FE2BE1";
paths = (
{
closed = 1;
nodes = (
"40 400 LINE",
"40 520 LINE",
"160 520 LINE",
"160 400 LINE"
);
},
{
closed = 1;
nodes = (
"40 160 LINE",
"40 280 LINE",
"160 280 LINE",
"160 160 LINE"
);
}
);
width = 200;
}
);
unicode = 003A;
},
{
glyphname = comma;
lastChange = "2016-01-29 04:29:50 +0000";
layers = (
{
layerId = "574E95B2-2314-4574-B50A-AD7746FE2BE1";
paths = (
{
closed = 1;
nodes = (
"80 120 LINE",
"80 -60 LINE",
"200 0 LINE",
"200 120 LINE"
);
}
);
width = 280;
}
);
unicode = 002C;
},
{
glyphname = exclam;
lastChange = "2016-01-29 04:09:31 +0000";
layers = (
{
layerId = "574E95B2-2314-4574-B50A-AD7746FE2BE1";
paths = (
{
closed = 1;
nodes = (
"200 120 LINE",
"200 0 LINE",
"80 0 LINE",
"80 120 LINE"
);
},
{
closed = 1;
nodes = (
"80 240 LINE",
"200 240 LINE",
"200 800 LINE",
"80 800 LINE"
);
}
);
width = 280;
}
);
unicode = 0021;
},
{
glyphname = period;
lastChange = "2016-01-29 03:51:24 +0000";
layers = (
{
layerId = "574E95B2-2314-4574-B50A-AD7746FE2BE1";
paths = (
{
closed = 1;
nodes = (
"80 120 LINE",
"80 0 LINE",
"200 0 LINE",
"200 120 LINE"
);
}
);
width = 280;
}
);
unicode = 002E;
},
{
glyphname = question;
lastChange = "2016-01-29 06:07:10 +0000";
layers = (
{
layerId = "574E95B2-2314-4574-B50A-AD7746FE2BE1";
paths = (
{
closed = 1;
nodes = (
"280 0 LINE",
"280 120 LINE",
"160 120 LINE",
"160 0 LINE"
);
},
{
closed = 1;
nodes = (
"116 800 OFFCURVE",
"40 713 OFFCURVE",
"40 616 CURVE SMOOTH",
"40 580 LINE",
"160 580 LINE",
"160 618 LINE SMOOTH",
"160 648 OFFCURVE",
"182 676 OFFCURVE",
"212 679 CURVE SMOOTH",
"249 684 OFFCURVE",
"280 656 OFFCURVE",
"280 620 CURVE",
"280 620 LINE",
"280 594 OFFCURVE",
"273 568 OFFCURVE",
"261 545 CURVE SMOOTH",
"179 395 LINE SMOOTH",
"167 372 OFFCURVE",
"160 346 OFFCURVE",
"160 320 CURVE SMOOTH",
"160 240 LINE",
"280 240 LINE",
"280 320 LINE SMOOTH",
"280 346 OFFCURVE",
"287 372 OFFCURVE",
"299 395 CURVE SMOOTH",
"381 545 LINE SMOOTH",
"393 568 OFFCURVE",
"400 594 OFFCURVE",
"400 620 CURVE",
"400 620 LINE",
"400 722 OFFCURVE",
"316 800 OFFCURVE",
"213 800 CURVE SMOOTH"
);
}
);
width = 440;
}
);
unicode = 003F;
},
{
glyphname = quotedbl;
lastChange = "2016-02-22 02:58:15 +0000";
layers = (
{
layerId = "574E95B2-2314-4574-B50A-AD7746FE2BE1";
paths = (
{
closed = 1;
nodes = (
"40 800 LINE",
"40 620 LINE",
"160 680 LINE",
"160 800 LINE"
);
},
{
closed = 1;
nodes = (
"200 800 LINE",
"200 620 LINE",
"320 680 LINE",
"320 800 LINE"
);
}
);
width = 360;
}
);
unicode = 0022;
},
{
glyphname = quotesingle;
lastChange = "2016-02-22 02:58:27 +0000";
layers = (
{
layerId = "574E95B2-2314-4574-B50A-AD7746FE2BE1";
paths = (
{
closed = 1;
nodes = (
"80 800 LINE",
"80 620 LINE",
"200 680 LINE",
"200 800 LINE"
);
}
);
width = 280;
}
);
unicode = 0027;
},
{
glyphname = semicolon;
lastChange = "2016-01-29 05:50:15 +0000";
layers = (
{
layerId = "574E95B2-2314-4574-B50A-AD7746FE2BE1";
paths = (
{
closed = 1;
nodes = (
"40 400 LINE",
"40 520 LINE",
"160 520 LINE",
"160 400 LINE"
);
},
{
closed = 1;
nodes = (
"40 100 LINE",
"40 280 LINE",
"160 280 LINE",
"160 160 LINE"
);
}
);
width = 200;
}
);
unicode = 003B;
},
{
glyphname = slash;
lastChange = "2016-01-29 05:44:33 +0000";
layers = (
{
layerId = "574E95B2-2314-4574-B50A-AD7746FE2BE1";
paths = (
{
closed = 1;
nodes = (
"10 0 LINE",
"210 800 LINE",
"330 800 LINE",
"130 0 LINE"
);
}
);
width = 340;
}
);
unicode = 002F;
},
{
glyphname = underscore;
lastChange = "2016-01-29 04:22:14 +0000";
layers = (
{
layerId = "574E95B2-2314-4574-B50A-AD7746FE2BE1";
paths = (
{
closed = 1;
nodes = (
"-1 -50 LINE",
"401 -50 LINE",
"401 11 LINE",
"-1 11 LINE"
);
}
);
width = 400;
}
);
unicode = 005F;
},
{
glyphname = hyphen;
lastChange = "2016-01-29 04:18:09 +0000";
layers = (
{
layerId = "574E95B2-2314-4574-B50A-AD7746FE2BE1";
paths = (
{
closed = 1;
nodes = (
"20 280 LINE",
"340 280 LINE",
"340 400 LINE",
"20 400 LINE"
);
}
);
width = 360;
}
);
unicode = 002D;
},
{
glyphname = quotedblleft;
lastChange = "2016-02-22 02:58:46 +0000";
layers = (
{
layerId = "574E95B2-2314-4574-B50A-AD7746FE2BE1";
paths = (
{
closed = 1;
nodes = (
"320 620 LINE",
"320 800 LINE",
"200 740 LINE",
"200 620 LINE"
);
},
{
closed = 1;
nodes = (
"160 620 LINE",
"160 800 LINE",
"40 740 LINE",
"40 620 LINE"
);
}
);
width = 360;
}
);
unicode = 201C;
},
{
glyphname = quotedblright;
lastChange = "2016-02-22 02:59:05 +0000";
layers = (
{
layerId = "574E95B2-2314-4574-B50A-AD7746FE2BE1";
paths = (
{
closed = 1;
nodes = (
"40 800 LINE",
"40 620 LINE",
"160 680 LINE",
"160 800 LINE"
);
},
{
closed = 1;
nodes = (
"200 800 LINE",
"200 620 LINE",
"320 680 LINE",
"320 800 LINE"
);
}
);
width = 360;
}
);
unicode = 201D;
},
{
glyphname = quoteleft;
lastChange = "2016-02-22 03:05:00 +0000";
layers = (
{
layerId = "574E95B2-2314-4574-B50A-AD7746FE2BE1";
paths = (
{
closed = 1;
nodes = (
"200 620 LINE",
"200 800 LINE",
"80 740 LINE",
"80 620 LINE"
);
}
);
width = 280;
}
);
unicode = 2018;
},
{
glyphname = quoteright;
lastChange = "2016-02-22 03:04:39 +0000";
layers = (
{
layerId = "574E95B2-2314-4574-B50A-AD7746FE2BE1";
paths = (
{
closed = 1;
nodes = (
"80 800 LINE",
"80 620 LINE",
"200 680 LINE",
"200 800 LINE"
);
}
);
width = 280;
}
);
unicode = 2019;
},
{
glyphname = plus;
lastChange = "2016-01-29 04:45:34 +0000";
layers = (
{
layerId = "574E95B2-2314-4574-B50A-AD7746FE2BE1";
paths = (
{
closed = 1;
nodes = (
"310 370 LINE",
"310 560 LINE",
"210 560 LINE",
"210 370 LINE",
"20 370 LINE",
"20 270 LINE",
"210 270 LINE",
"210 80 LINE",
"310 80 LINE",
"310 270 LINE",
"500 270 LINE",
"500 370 LINE"
);
}
);
width = 520;
}
);
unicode = 002B;
},
{
glyphname = equal;
lastChange = "2016-01-29 04:45:19 +0000";
layers = (
{
layerId = "574E95B2-2314-4574-B50A-AD7746FE2BE1";
paths = (
{
closed = 1;
nodes = (
"20 400 LINE",
"20 427 OFFCURVE",
"20 447 OFFCURVE",
"20 500 CURVE",
"460 500 LINE",
"460 473 OFFCURVE",
"460 453 OFFCURVE",
"460 400 CURVE"
);
},
{
closed = 1;
nodes = (
"20 180 LINE",
"20 207 OFFCURVE",
"20 227 OFFCURVE",
"20 280 CURVE",
"460 280 LINE",
"460 253 OFFCURVE",
"460 233 OFFCURVE",
"460 180 CURVE"
);
}
);
width = 480;
}
);
unicode = 003D;
},
{
glyphname = greater;
lastChange = "2016-01-29 04:44:51 +0000";
layers = (
{
layerId = "574E95B2-2314-4574-B50A-AD7746FE2BE1";
paths = (
{
closed = 1;
nodes = (
"20 440 LINE",
"311 280 LINE",
"20 120 LINE",
"20 0 LINE",
"420 220 LINE",
"420 340 LINE",
"20 560 LINE"
);
}
);
width = 440;
}
);
unicode = 003E;
},
{
glyphname = less;
lastChange = "2016-01-29 04:44:26 +0000";
layers = (
{
layerId = "574E95B2-2314-4574-B50A-AD7746FE2BE1";
paths = (
{
closed = 1;
nodes = (
"20 340 LINE",
"20 220 LINE",
"420 0 LINE",
"420 120 LINE",
"129 280 LINE",
"420 440 LINE",
"420 560 LINE"
);
}
);
width = 440;
}
);
unicode = 003C;
},
{
glyphname = percent;
lastChange = "2016-01-29 04:14:37 +0000";
layers = (
{
layerId = "574E95B2-2314-4574-B50A-AD7746FE2BE1";
paths = (
{
closed = 1;
nodes = (
"20 0 LINE",
"300 800 LINE",
"360 800 LINE",
"80 0 LINE"
);
},
{
closed = 1;
nodes = (
"93 720 OFFCURVE",
"80 707 OFFCURVE",
"80 690 CURVE SMOOTH",
"80 650 LINE SMOOTH",
"80 633 OFFCURVE",
"93 620 OFFCURVE",
"110 620 CURVE SMOOTH",
"127 620 OFFCURVE",
"140 633 OFFCURVE",
"140 650 CURVE SMOOTH",
"140 690 LINE SMOOTH",
"140 707 OFFCURVE",
"127 720 OFFCURVE",
"110 720 CURVE SMOOTH"
);
},
{
closed = 1;
nodes = (
"171 800 OFFCURVE",
"220 751 OFFCURVE",
"220 690 CURVE SMOOTH",
"220 650 LINE SMOOTH",
"220 589 OFFCURVE",
"171 540 OFFCURVE",
"110 540 CURVE SMOOTH",
"110 540 LINE SMOOTH",
"49 540 OFFCURVE",
"0 589 OFFCURVE",
"0 650 CURVE SMOOTH",
"0 690 LINE SMOOTH",
"0 751 OFFCURVE",
"49 800 OFFCURVE",
"110 800 CURVE",
"110 800 LINE"
);
},
{
closed = 1;
nodes = (
"253 180 OFFCURVE",
"240 167 OFFCURVE",
"240 150 CURVE SMOOTH",
"240 110 LINE SMOOTH",
"240 93 OFFCURVE",
"253 80 OFFCURVE",
"270 80 CURVE SMOOTH",
"287 80 OFFCURVE",
"300 93 OFFCURVE",
"300 110 CURVE SMOOTH",
"300 150 LINE SMOOTH",
"300 167 OFFCURVE",
"287 180 OFFCURVE",
"270 180 CURVE SMOOTH"
);
},
{
closed = 1;
nodes = (
"331 260 OFFCURVE",
"380 211 OFFCURVE",
"380 150 CURVE SMOOTH",
"380 110 LINE SMOOTH",
"380 49 OFFCURVE",
"331 0 OFFCURVE",
"270 0 CURVE SMOOTH",
"270 0 LINE SMOOTH",
"209 0 OFFCURVE",
"160 49 OFFCURVE",
"160 110 CURVE SMOOTH",
"160 150 LINE SMOOTH",
"160 211 OFFCURVE",
"209 260 OFFCURVE",
"270 260 CURVE",
"270 260 LINE"
);
}
);
width = 380;
}
);
unicode = 0025;
},
